# xmcd
#
# Track frame offsets: 
#        150
#        54028
#        68103
#        76360
#        104506
#        113000
#        124489
#        136674
#        158204
#        172640
#        179899
#        195401
#        205484
#        222320
#        252039
#        259050
#        275680
#        297040
#        311474
#        329417
#
# Disc length: 4697 seconds
#
# Revision: 0
# Processed by: cddbd v1.5.2PL0 Copyright (c) Steve Scherf et al.
# Submitted via: ExactAudioCopy v0.95b3
#
DISCID=25125714
DTITLE=The Rolling Stones  - Girls, Pills And Powders (Instrumentals, 
DTITLE=Pills and Powders) [CD5]
DYEAR=1900
DGENRE=
TTITLE0=Munich Hilton, take 1
TTITLE1=Golden Caddy, take 1
TTITLE2=Golden Caddy, take 2
TTITLE3=Golden Caddy, take 4
TTITLE4=Broken Toe
TTITLE5=Armpit Blues
TTITLE6=Brown Leaves, take 2
TTITLE7=Lighr UP
TTITLE8=Much Spreading
TTITLE9=Stay Where You Are
TTITLE10=I Can't Help It, take 5
TTITLE11=Broken Head Blues
TTITLE12=I Can't Help It, take 3
TTITLE13=Munich Hilton, take 2
TTITLE14=Follow You
TTITLE15=Shattered, take 1
TTITLE16=Feel No Pain No More
TTITLE17=Los Trios Guitaros
TTITLE18=Up Against The Wall, take 1
TTITLE19=Slow Blues
EXTD=
EXTT0=
EXTT1=
EXTT2=
EXTT3=
EXTT4=
EXTT5=
EXTT6=
EXTT7=
EXTT8=
EXTT9=
EXTT10=
EXTT11=
EXTT12=
EXTT13=
EXTT14=
EXTT15=
EXTT16=
EXTT17=
EXTT18=
EXTT19=
PLAYORDER=
